<svg width="130" height="47" viewBox="0 0 130 47" fill="none" xmlns="http://www.w3.org/2000/svg">
<path d="M64.9153 46.7415C52.7772 46.7415 41.1976 44.4212 32.3035 40.2105C22.9796 35.8064 17.8451 29.877 17.8451 23.5393C17.8451 17.2017 22.9796 11.2723 32.3035 6.86819C41.1976 2.65743 52.7987 0.337219 64.9153 0.337219C77.0535 0.337219 88.6331 2.65743 97.5487 6.86819C106.873 11.2723 111.986 17.2017 111.986 23.5393C111.986 29.877 106.851 35.8064 97.5487 40.2105C88.6545 44.4212 77.0535 46.7415 64.9153 46.7415Z" fill="#404460"/>
<path d="M64.9154 44.4857C40.9184 44.4857 20.6381 34.9041 20.6381 23.5393C20.6381 12.1746 40.9184 2.59296 64.9154 2.59296C88.9125 2.59296 109.193 12.1746 109.193 23.5393C109.214 34.8826 88.9339 44.4857 64.9154 44.4857Z" fill="#151724"/>
<path d="M7.44721 41.1128C4.95513 41.1128 3.23645 38.857 3.19349 36.7302L0.508057 10.3485C0.508057 9.12394 0.937725 8.00681 1.7541 7.19044C2.54898 6.37407 3.62316 5.92291 4.76178 5.92291H125.112C127.475 5.92291 129.409 7.83494 129.409 10.1981V10.3055L126.702 36.8161C126.659 39.1363 124.704 41.1128 122.448 41.1128L109.236 41.0698L100.535 37.9977V36.7302C100.277 36.5583 98.623 35.6345 92.9728 34.7322C88.182 33.9803 79.3953 33.0565 64.851 33.0565C49.0392 33.0565 40.145 33.8944 35.5046 34.5818C30.5419 35.3338 29.0166 36.1072 28.6943 36.322L28.7158 37.5251L28.3936 37.6969L21.0462 41.0484L7.44721 41.1128Z" fill="#404460"/>
<path d="M7.38272 39.1363C6.05075 39.1363 5.10547 37.8473 5.10547 36.6443L2.42004 10.1767C2.42004 8.90914 3.45125 7.89941 4.69729 7.89941H125.048C126.315 7.89941 127.346 8.93062 127.346 10.1767V10.2196L124.639 36.6443C124.618 37.9762 123.565 39.1149 122.362 39.1149L109.451 39.0719L102.447 36.5798C102.447 33.3143 87.4515 31.0586 64.765 31.0586C42.2074 31.0586 26.6319 32.7128 26.6319 35.9998V36.2576L20.4447 39.0719L7.38272 39.1363Z" fill="#151724"/>
<path d="M42.723 25.5372V13.5495C42.723 13.0554 43.1956 12.7761 44.3343 12.7546V11.616H36.2565V12.7546C37.2232 12.7546 37.8677 13.0554 37.8677 13.5495L37.8463 18.5121H31.6805V13.5495C31.6805 13.0554 32.3035 12.7546 33.2703 12.7546V11.616H25.1925V12.7546C26.3311 12.7546 26.7823 13.0554 26.7823 13.6139V28.502C26.7823 29.2539 25.6437 29.8769 25.171 30.0273L25.1925 31.2304C28.5654 30.2851 30.2196 29.9413 33.2703 29.3183V28.1797C33.2703 28.1797 31.659 28.1367 31.659 27.3633V20.8109H37.8463L37.8248 26.2677C37.6959 27.127 37.3092 27.3848 36.192 27.5996V28.7383C39.7798 28.1797 41.6488 27.9004 44.2913 27.6211V26.4395C44.3343 26.461 42.766 26.3321 42.723 25.5372Z" fill="#404460"/>
<path d="M20.5091 30.0917C16.4273 34.6033 11.5076 30.7792 11.5076 22.551C11.5076 19.393 13.4841 13.6139 16.6206 13.6354C20.7884 13.6784 23.0012 18.061 23.0012 18.061H24.1398V11.573H22.9797C22.9797 11.573 22.0345 12.6257 20.7884 12.4109C19.6928 12.239 18.8764 10.95 16.6636 10.8426C11.572 10.5848 5.98633 16.2564 5.98633 22.594C5.98633 31.037 12.6032 35.2263 15.9117 35.0114C20.6166 34.6892 19.4135 32.8846 24.1398 31.4882V26.2247H22.9583C22.3567 27.5997 21.5618 28.9746 20.5091 30.0917Z" fill="#404460"/>
<path d="M103.113 11.5945H90.8245V12.7331C91.469 12.7331 92.3713 12.6901 92.4357 13.6354V26.0958C92.4357 27.0411 91.5334 27.0626 90.803 27.1485V28.2871C93.2306 28.6738 95.1641 28.9746 98.9022 29.748V28.6309C98.1718 28.5879 97.291 27.9864 97.2695 26.9766V20.7464H102.963C103.865 20.639 106.507 19.2641 106.507 16.3208C106.55 13.5924 104.595 11.5945 103.113 11.5945ZM100.535 18.4907H97.3125V13.3561H100.535C101.631 13.3561 102.211 14.9674 102.211 15.9127C102.211 16.8579 101.502 18.4907 100.535 18.4907Z" fill="#404460"/>
<path d="M110.933 15.2252C110.868 13.2058 112.802 12.8405 114.392 13.0554C117.765 13.528 119.612 16.7505 119.913 17.438H121.073V11.616H119.913C119.741 13.3776 116.411 10.907 113.21 10.8426C110.417 10.7996 108.033 12.282 107.667 15.0963C106.507 24.2053 119.591 24.2053 119.591 28.0938C119.591 30.3925 117.335 32.1112 114.757 31.9178C109.622 31.5526 108.355 24.5705 108.29 23.926H107.152V32.0682C110.632 31.9608 111.706 34.1951 114.693 34.4529C117.185 34.6462 123.372 33.0779 123.372 26.504C123.372 18.4048 111.083 19.7152 110.933 15.2252Z" fill="#404460"/>
<path d="M78.7937 18.3833L74.6259 11.5945H67.4075V12.7331C68.4172 12.7331 69.0187 13.0554 69.0187 13.5495L68.9972 24.3771C68.9972 25.3009 67.429 25.4298 67.429 25.4298V26.547C71.3389 26.6114 72.8643 26.6544 74.3896 26.7188V25.5587C73.7451 25.4943 72.8428 25.1935 72.8213 24.4631V17.9536L78.0633 26.7403C78.1707 26.9981 78.364 26.9981 78.4714 26.7403L83.2193 18.3188V25.0216C83.0474 25.7736 82.3385 25.9454 81.608 26.0743V27.2129C84.0786 27.4278 85.4106 27.5996 89.6428 28.1367V26.9981C89.0198 26.8692 88.2034 26.3321 88.0531 25.6447V13.571C88.0531 13.0983 88.6331 12.7546 89.6428 12.7546V11.616H82.6607L78.7937 18.3833Z" fill="#404460"/>
<path d="M64.4857 24.2267L58.9 11.5945H52.1113V12.7331C53.2069 12.7761 53.5077 13.4206 52.9277 14.6022C52.412 15.6549 47.7287 24.0119 46.9767 25.4298C46.6545 26.0743 46.1604 26.2247 45.344 26.3536V27.5352C48.8028 27.17 51.2305 26.9551 52.7558 26.9122L52.7343 25.7521C52.0468 25.7736 51.0586 25.4298 51.3164 24.5705L52.0253 23.217H58.5993L59.1364 24.5275C59.2653 25.215 58.363 25.4513 57.7185 25.4943L57.697 26.6329C61.6929 26.461 64.5717 26.4825 66.2689 26.504V25.3654C65.7103 25.3654 65.0873 24.9357 64.4857 24.2267ZM53.2284 20.9613L55.7205 16.4927L57.611 20.9613H53.2284Z" fill="#404460"/>
<path d="M49.2755 41.4565V39.48H50.4356V40.3823H51.3164C51.8535 40.3823 51.9394 40.3609 51.9394 39.8882V39.3726C51.918 38.9215 51.918 38.9 51.4023 38.8785H50.6504C50.4141 38.8785 50.1348 38.857 49.877 38.7066C49.254 38.3629 49.254 37.7399 49.2755 37.4176V36.6657C49.2755 36.4079 49.2755 35.8279 49.8126 35.4412C50.1348 35.2263 50.4356 35.2263 50.7149 35.2263H53.0136V37.1383H51.8535V36.279H50.9512C50.6075 36.3005 50.4786 36.3005 50.5 36.7731V37.2458C50.5 37.6969 50.6075 37.7184 51.0371 37.7184H51.7031C51.9609 37.7184 52.3261 37.7184 52.6269 37.9117C53.1425 38.234 53.164 38.7711 53.164 39.1793V39.9312C53.164 40.2749 53.1425 40.5327 52.9706 40.8335C52.6269 41.3491 52.1543 41.3706 51.7031 41.4135L49.2755 41.4565Z" fill="#404460"/>
<path d="M54.5819 41.4779V40.4253H55.076V36.3219H54.5819V35.2692H57.3103C58.6423 35.2692 58.7927 35.9137 58.7927 36.6227V37.4176C58.8141 37.9547 58.6852 38.3414 58.4489 38.5777C58.2126 38.814 57.8689 38.9214 57.3318 38.9214H56.2361V40.4253H56.7303V41.4779H54.5819ZM57.1814 37.8472C57.5681 37.8472 57.6326 37.8043 57.654 37.2887V36.7946C57.6326 36.4079 57.6111 36.3649 57.1599 36.3434H56.2791V37.8258L57.1814 37.8472Z" fill="#404460"/>
<path d="M61.6285 41.5854C61.1773 41.5854 60.5543 41.5854 60.2321 40.9194C60.1246 40.6616 60.1031 40.4897 60.0817 39.7163V37.2242C60.1031 36.3649 60.1032 36.2575 60.2321 35.9567C60.5543 35.2907 61.2418 35.2907 61.5425 35.2907H62.6382C63.3471 35.2907 64.1206 35.3981 64.1206 36.859V40.0386C64.1206 40.4038 64.1206 40.8979 63.6909 41.2631C63.3472 41.5639 62.9819 41.5639 62.5952 41.5639H61.6929L61.65 41.435L61.6285 41.5854ZM61.9507 36.3434C61.3492 36.3434 61.3062 36.3434 61.3062 37.1813V39.7807C61.3062 40.4897 61.3062 40.5112 61.7789 40.5327H62.4234C62.8745 40.5327 62.896 40.4253 62.896 39.7807V37.1813C62.9175 36.4079 62.853 36.3864 62.2945 36.3649L61.9507 36.3434Z" fill="#404460"/>
<path d="M68.6535 41.6284V39.523C68.6535 39.1148 68.5676 39.0504 68.095 39.0504H67.2142V41.6284H65.517V40.5757H66.0111V36.4724H65.517V35.4197H68.2668C69.1692 35.4626 69.7707 35.699 69.7707 36.902V37.5036C69.7492 37.9977 69.6418 38.277 69.3625 38.4703C69.8137 38.6422 69.8566 39.0074 69.8566 39.48V40.5972H70.3722V41.6499H68.6535V41.6284ZM68.0305 37.9762C68.5676 37.9762 68.5676 37.8688 68.5676 37.5036V36.9235C68.5676 36.6013 68.5032 36.4509 68.0735 36.4509H67.2356V37.9762H68.0305Z" fill="#404460"/>
<path d="M72.5635 41.6929V40.6616H73.0791V36.5368H72.4776V37.4176H71.339V35.4841H75.9794V37.4176H74.8623V36.5368H74.2607V40.6616H74.7549V41.6929H72.5635Z" fill="#404460"/>
<path d="M77.3544 41.6928V39.7163H78.5145V40.6186H79.3953C79.9324 40.6186 80.0183 40.5971 80.0183 40.1245V39.6089C79.9968 39.1577 79.9968 39.1363 79.5027 39.1148H78.7508C78.5145 39.1148 78.2352 39.0933 77.9774 38.9429C77.3544 38.5992 77.3544 37.9761 77.3544 37.6539V36.902C77.3544 36.6442 77.3544 36.0641 77.8915 35.6774C78.2137 35.4626 78.5145 35.4626 78.7938 35.4626H81.0925V37.3746H79.9324V36.5368H79.0086C78.6649 36.5582 78.536 36.5582 78.5574 37.0309V37.5035C78.5574 37.9547 78.6649 37.9761 79.0945 37.9761H79.7605C80.0183 37.9761 80.3835 37.9761 80.6843 38.1695C81.1999 38.4917 81.2214 39.0074 81.2214 39.437V40.2104C81.2214 40.5542 81.1999 40.812 81.028 41.1127C80.6843 41.6283 80.2117 41.6498 79.7605 41.6928H77.3544Z" fill="#404460"/>
<path d="M82.855 35.4203C82.8764 35.3988 82.8979 35.3988 82.9194 35.3773C82.9409 35.3558 82.9624 35.3343 82.9624 35.3129C82.9839 35.2914 82.9839 35.2699 82.9839 35.2269C82.9839 35.141 82.9624 35.098 82.9194 35.055C82.8764 35.0121 82.812 35.0121 82.7046 35.0121H82.4253V35.7425H82.5757V35.4203H82.6831L82.855 35.7425H83.0053L82.812 35.4203C82.7905 35.4418 82.8335 35.4418 82.855 35.4203ZM82.5542 35.3343V35.141H82.6616C82.6831 35.141 82.7046 35.141 82.7046 35.141C82.7261 35.141 82.7475 35.141 82.7475 35.1625C82.769 35.1625 82.7905 35.184 82.7905 35.2054C82.812 35.2269 82.812 35.2484 82.812 35.2484C82.812 35.2914 82.7905 35.3129 82.769 35.3343C82.7261 35.3558 82.7046 35.3558 82.6616 35.3558H82.5542V35.3343Z" fill="#404460"/>
<path d="M82.6607 34.7107C82.274 34.7107 81.9733 35.0329 81.9733 35.3982C81.9733 35.7634 82.2955 36.0856 82.6607 36.0856C83.026 36.0856 83.3482 35.7634 83.3482 35.3982C83.3482 35.0329 83.0474 34.7107 82.6607 34.7107ZM82.6607 35.9997C82.3385 35.9997 82.0807 35.7419 82.0807 35.4196C82.0807 35.0974 82.3385 34.8396 82.6607 34.8396C82.983 34.8396 83.2408 35.0974 83.2408 35.4196C83.2408 35.7419 83.0045 35.9997 82.6607 35.9997Z" fill="#404460"/>
</svg>
